<?xml version="1.0" encoding="UTF-8"?><svg id="finales_Logo_vektor" xmlns="http://www.w3.org/2000/svg" viewBox="0 0 169.58 61.86"><defs><style>.cls-1{fill:#1c4a9b;}.cls-1,.cls-2{stroke-width:0px;}.cls-2{fill:#231f20;}</style></defs><path class="cls-2" d="m82.41,25.33c0-9.32-6.33-13.3-15.34-13.3h-8.64v26.79h8.87c9.4,0,15.12-4.21,15.12-13.49Zm-14.7,9.43h-4.21v-18.68h3.45c6.74,0,10.34,3.14,10.34,9.62,0,5.95-3.11,9.06-9.59,9.06Z"/><rect class="cls-2" x="88.99" y="12.07" width="5.12" height="26.75"/><path class="cls-2" d="m119.3,31.7l-3.3-3.79c3.18-1.52,4.7-4.21,4.7-7.35,0-5.83-3.94-8.52-9.66-8.52h-9.77v26.79h5.15v-9.62h2.65c.61,0,1.17-.04,1.74-.08l3.98,4.77c2.61,3.12,5.17,5.01,8.68,5.33l1.54-3.97c-2.15-.57-4.08-1.71-5.71-3.56Zm-10-6.25h-2.88v-9.36h3.79c3.75,0,5.19,1.36,5.19,4.62s-2.16,4.74-6.1,4.74Z"/><path class="cls-2" d="m144.81,12.03h-6.93l-10.38,26.79h5.11l3.3-8.75h9.81l2.88,8.75h5.3l-9.09-26.79Zm-7.5,14.25l2.27-6.4,1.55-4.74,1.33,4.74,2.01,6.4h-7.16Z"/><path class="cls-2" d="m63.81,50.96c-.22.02-.48.05-.83.05-1.65,0-2.98-.92-2.98-2.93s1.24-2.8,2.8-2.8c.99,0,1.4.14,1.99.3l.43-1.16c-.46-.18-1.13-.44-2.4-.44-2.84,0-4.4,1.42-4.4,4.21,0,2.63,1.66,4.13,4.36,4.13,1.02,0,1.76-.13,2.59-.43v-3.11h-1.55v2.17Z"/><polygon class="cls-2" points="70.95 48.71 74.17 48.71 74.17 47.53 70.95 47.53 70.95 45.29 74.42 45.29 74.42 44.07 69.39 44.07 69.39 52.2 74.69 52.2 74.69 50.97 70.95 50.97 70.95 48.71"/><path class="cls-2" d="m82.31,43.94c-2.67,0-4.36,1.5-4.36,4.18s1.42,4.22,4.14,4.22,4.34-1.58,4.34-4.2c0-2.49-1.3-4.2-4.12-4.2Zm-.18,7.14c-1.81,0-2.6-1.36-2.6-2.98s.82-2.91,2.68-2.91,2.63,1.25,2.63,2.93-.78,2.96-2.72,2.96Z"/><path class="cls-2" d="m91.34,46.08c0-.56.43-.82,1.27-.82s1.37.16,1.83.32l.46-1.12c-.45-.2-1.07-.47-2.33-.47-1.38,0-2.72.62-2.72,2.09,0,2.74,3.9,2.31,3.9,3.91,0,.71-.63,1.04-1.62,1.04-.92,0-1.51-.2-2.07-.4l-.46,1.15c.44.24,1.25.54,2.55.54,1.63,0,3.18-.69,3.18-2.39,0-2.6-3.98-2.49-3.98-3.85Z"/><polygon class="cls-2" points="101.79 48.09 99.87 44.07 98.1 44.07 100.96 49.39 100.96 52.2 102.5 52.2 102.5 49.34 105.56 44.07 103.83 44.07 101.79 48.09"/><path class="cls-2" d="m109.99,46.08c0-.56.43-.82,1.27-.82s1.37.16,1.83.32l.46-1.12c-.45-.2-1.07-.47-2.34-.47-1.38,0-2.71.62-2.71,2.09,0,2.74,3.9,2.31,3.9,3.91,0,.71-.63,1.04-1.62,1.04-.92,0-1.51-.2-2.07-.4l-.46,1.15c.44.24,1.25.54,2.55.54,1.63,0,3.18-.69,3.18-2.39,0-2.6-3.98-2.49-3.98-3.85Z"/><polygon class="cls-2" points="116.72 45.31 119.36 45.31 119.36 52.2 120.91 52.2 120.91 45.31 123.55 45.31 123.55 44.07 116.72 44.07 116.72 45.31"/><polygon class="cls-2" points="128.39 48.71 131.61 48.71 131.61 47.53 128.39 47.53 128.39 45.29 131.86 45.29 131.86 44.07 126.84 44.07 126.84 52.2 132.13 52.2 132.13 50.97 128.39 50.97 128.39 48.71"/><polygon class="cls-2" points="140.37 50.93 137.96 44.07 135.92 44.07 135.92 52.2 137.47 52.2 137.47 47.84 137.37 46.37 139.36 52.2 141.27 52.2 143.54 46.45 143.48 47.91 143.48 52.2 145.03 52.2 145.03 44.07 143.11 44.07 140.37 50.93"/><path class="cls-2" d="m150.48,46.08c0-.56.43-.82,1.27-.82s1.37.16,1.83.32l.46-1.12c-.45-.2-1.07-.47-2.34-.47-1.38,0-2.71.62-2.71,2.09,0,2.74,3.9,2.31,3.9,3.91,0,.71-.63,1.04-1.62,1.04-.92,0-1.51-.2-2.07-.4l-.46,1.15c.44.24,1.25.54,2.55.54,1.63,0,3.18-.69,3.18-2.39,0-2.6-3.98-2.49-3.98-3.85Z"/><path class="cls-1" d="m29.8,24.16c-.82.96-1.53,1.87-2.03,2.65h0c-2.47,3.84-5.63,13.78-5.37,13.95.26.17,7.97-6.88,10.42-10.74.03-.04.06-.1.09-.15,2.44-3.95,5.5-13.67,5.21-13.85-.23-.15-5.11,4.35-8.33,8.13Zm1.37,5.06c-.38.49-1.08.58-1.57.2-.49-.38-.58-1.08-.2-1.57.38-.49,1.08-.58,1.57-.2.49.38.58,1.08.2,1.57Z"/><path class="cls-2" d="m46.89,25.66c-.68-3.94-2.72-7.4-5.62-9.91,0,0,0,0,0,0-.36-.31-.72-.6-1.1-.88-.03-.02-.06-.04-.09-.06-.37-.26-.74-.51-1.13-.75-.04-.02-.07-.04-.11-.07-.41-.24-.83-.47-1.26-.68,0,0-.02,0-.03-.01-1.06-.51-2.17-.91-3.34-1.19-.23-.06-.46-.11-.69-.16-.16-.03-.32-.06-.48-.09-.32-.05-.65-.1-.97-.14-.06,0-.12-.02-.18-.03-.02,0-.03,0-.05,0-.46-.04-.92-.06-1.38-.07-.08,0-.15-.01-.23-.01-.11,0-.21,0-.32,0-.06,0-.13,0-.19,0-.26,0-.52.02-.77.04-.06,0-.12.01-.19.02-.25.02-.49.05-.73.08-.1.01-.2.03-.29.04-.19.03-.38.06-.56.09-.06.01-.12.02-.17.03h0l-.33-1.38c1.15-.23,2.31-.34,3.48-.34v-1.62c-3.78,0-7.51,1.1-10.75,3.18-3.32,2.13-5.88,5.19-7.45,8.76h0c-.39.88-.73,1.79-.99,2.73-1.41,5.14-.74,10.52,1.89,15.15,1.76,3.1,4.3,5.63,7.33,7.39,0,0,0,0,0,.01,2.43,1.41,5.14,2.29,7.97,2.58.02,0,.04,0,.05,0,.2.02.4.05.61.06v2.2h-3.77v1.61h10.27v-1.61h-3.77v-2.2c.05,0,.1-.01.16-.02.68-.05,1.36-.13,2.03-.25.54-.1,1.08-.23,1.62-.37.07-.02.13-.04.2-.06.45-.13.9-.27,1.34-.43.17-.06.33-.12.5-.19.37-.15.74-.3,1.11-.47.09-.04.19-.08.29-.12,0,0,0,0,.01,0,0,0,0,0,0,0,.13-.06.27-.12.4-.18l-.71-1.46c-.29.15-.59.27-.88.4-.3.13-.6.27-.9.38-.19.07-.38.13-.57.19-.28.09-.56.19-.84.27l-.32-1.34c.34-.1.68-.21,1.01-.33.3-.11.59-.25.88-.38.05-.02.1-.04.16-.07.18-.08.37-.15.55-.24,0,0,0-.02,0-.03.63-.31,1.24-.65,1.83-1.03,0,0,.02,0,.02,0,0,0,0,0,.01,0,4.65-3.02,7.73-8.23,7.73-14.19,0-.99-.1-1.95-.26-2.89Zm-13.29,17.83c-.35.08-.7.14-1.06.19-.16.02-.32.06-.48.08-.22.03-.44.04-.65.05-.32.03-.64.05-.97.05-.22,0-.45,0-.67-.01-.3,0-.59-.02-.88-.04-.22-.02-.44-.05-.65-.08-.29-.04-.59-.08-.87-.13-.21-.04-.43-.09-.64-.14-.3-.07-.59-.14-.89-.23-.16-.05-.32-.11-.49-.16-.35-.12-.69-.24-1.03-.38-.06-.02-.11-.05-.17-.08-5.44-2.35-9.24-7.76-9.24-14.06,0-.99.1-1.95.28-2.89,1.35-7.08,7.57-12.43,15.04-12.43.14,0,.27,0,.4.01.19,0,.38.01.57.03.21.02.43.03.64.06.07,0,.14.02.22.03.34.04.67.09,1,.15.32.06.63.13.95.22.09.02.18.04.27.06.89.25,1.74.57,2.55.95,0,0,.02,0,.02.01.39.19.77.39,1.14.61.03.02.05.03.08.05.36.21.71.44,1.04.68.01,0,.03.02.04.03,4.29,3.09,6.74,8.26,6.31,13.64-.08.95-.23,1.91-.5,2.86-1.53,5.57-5.94,9.56-11.18,10.83-.06.01-.12.03-.18.04Zm-19.34-5.88c-2.42-4.26-3.04-9.2-1.74-13.92.26-.94.6-1.85,1-2.72,1.45-3.19,3.77-5.91,6.75-7.83,1.49-.96,3.11-1.7,4.82-2.2l.33,1.38c-.15.04-.29.1-.43.15-.22.07-.45.15-.67.24-.46.17-.91.36-1.35.57-.02,0-.04.02-.06.02,0,0,0,0,0,0-3.45,1.65-6.33,4.42-8.03,8.04-.41.86-.76,1.77-1.02,2.72-2.27,8.24,1.98,16.71,9.6,20.01.08.04.17.08.25.11.35.15.72.27,1.09.4.13.04.26.1.39.14.06.02.13.03.19.05.11.03.21.07.31.1.36.1.73.18,1.09.26.03,0,.06.01.09.02.48.09.96.17,1.43.22.06,0,.12.02.18.03.03,0,.06,0,.08,0,.43.04.86.06,1.29.07.12,0,.24.02.36.02.34,0,.67-.01,1-.03.22-.01.44-.04.66-.06.51-.05,1-.13,1.49-.22l.32,1.34c-.62.12-1.25.22-1.88.27-.55.05-1.1.09-1.66.09-.38,0-.76-.02-1.14-.04-.09,0-.18-.01-.27-.02-.26-.02-.52-.05-.78-.08-.17-.02-.33-.04-.5-.07-.15-.02-.3-.05-.45-.08-.57-.1-1.14-.22-1.7-.38-.55-.15-1.09-.33-1.62-.53-.08-.03-.17-.07-.25-.1-.44-.17-.88-.37-1.3-.57-.09-.04-.18-.08-.27-.13-3.18-1.61-5.83-4.11-7.63-7.28Z"/></svg>