<?xml version="1.0" encoding="UTF-8" standalone="no"?>
<!-- Created with Inkscape (http://www.inkscape.org/) -->
<svg xmlns:dc="http://purl.org/dc/elements/1.1/" xmlns:cc="http://creativecommons.org/ns#" xmlns:rdf="http://www.w3.org/1999/02/22-rdf-syntax-ns#" xmlns:svg="http://www.w3.org/2000/svg" xmlns="http://www.w3.org/2000/svg" xmlns:sodipodi="http://sodipodi.sourceforge.net/DTD/sodipodi-0.dtd" xmlns:inkscape="http://www.inkscape.org/namespaces/inkscape" width="155.08395mm" height="79.000816mm" viewBox="0 0 155.08395 79.000816" version="1.1" id="svg3459" inkscape:version="0.92.5 (2060ec1f9f, 2020-04-08)" sodipodi:docname="DiraLogoWeb.svg" inkscape:export-filename="/home/ujr/dira/www/docs/img/DiraLogoWeb.png" inkscape:export-xdpi="150.14783" inkscape:export-ydpi="150.14783">
  <metadata id="metadata105">
    <rdf:RDF>
      <cc:Work rdf:about="">
        <dc:format>image/svg+xml</dc:format>
        <dc:type rdf:resource="http://purl.org/dc/dcmitype/StillImage"/>
      </cc:Work>
    </rdf:RDF>
  </metadata>
  <sodipodi:namedview id="namedview3461" pagecolor="#ffffff" bordercolor="#666666" borderopacity="1.0" inkscape:pageshadow="2" inkscape:pageopacity="0.0" inkscape:pagecheckerboard="0" inkscape:document-units="mm" showgrid="false" fit-margin-top="5" fit-margin-left="10" fit-margin-bottom="5" fit-margin-right="10" inkscape:zoom="2" inkscape:cx="198.8346" inkscape:cy="143.87845" inkscape:window-width="1528" inkscape:window-height="836" inkscape:window-x="72" inkscape:window-y="27" inkscape:window-maximized="1" inkscape:current-layer="layer1"/>
  <defs id="defs3456"/>
  <g inkscape:label="Ebene 1" inkscape:groupmode="layer" id="layer1" transform="translate(20.537807,42.391923)">
    <g id="g1104" style="display:inline" transform="matrix(1.8,0,0,1.8,-60.679384,-79.130081)">
      <path id="path1100" style="display:inline;fill:none;fill-opacity:0.45490202;stroke:#000000;stroke-width:1.05833006;stroke-linecap:square;stroke-miterlimit:4;stroke-dasharray:none;stroke-opacity:1" d="m 46.988968,48.652984 -0.887436,0.616664 c -2.487098,1.729668 -5.64009,2.514776 -8.869472,1.945349 -6.458764,-1.138854 -10.777284,-7.264591 -9.645684,-13.682216 0.565801,-3.208813 2.387003,-5.883041 4.8741,-7.612709 l 0.814301,-0.540161" sodipodi:nodetypes="ccsccc" inkscape:connector-curvature="0"/>
    </g>
    <ellipse style="display:inline;fill:none;fill-opacity:0.45490202;stroke:#000000;stroke-width:3.38666677;stroke-linecap:square;stroke-miterlimit:4;stroke-dasharray:none;stroke-opacity:1" id="ellipse1106" cx="8.6883917" cy="-9.2843885" rx="16.039709" ry="15.790066" transform="rotate(10)"/>
    <g id="g1122" style="display:inline" transform="matrix(1.8,0,0,1.8,-60.679384,-79.130081)">
      <path style="display:inline;fill:none;stroke:#000000;stroke-width:1.76389003;stroke-linecap:butt;stroke-linejoin:miter;stroke-miterlimit:4;stroke-dasharray:none;stroke-opacity:1" d="m 34.37176,54.907431 h 9.976549" id="path1118" sodipodi:nodetypes="cc" inkscape:connector-curvature="0"/>
      <path style="display:inline;fill:none;stroke:#000000;stroke-width:1.20929003;stroke-linecap:round;stroke-linejoin:miter;stroke-miterlimit:4;stroke-dasharray:none;stroke-opacity:1" d="m 39.219642,52.053203 v 2.400321" id="path1120" inkscape:connector-curvature="0"/>
    </g>
    <path id="path115563-4" style="color:#000000;display:inline;fill:#1a2de6;fill-opacity:1;stroke-width:0.58521485;stroke-linecap:round;stroke-linejoin:round" d="m 10.472824,-10.748393 c 0.02821,0.0021 0.05628,0.0049 0.08456,0.0076 0.81947,0.08146 1.572808,0.470014 2.109318,1.086762 1.173827,1.3506309 1.013048,3.4117506 -0.358908,4.6041841 C 10.936028,-3.8572277 8.8725916,-3.9848696 7.6984636,-5.335225 6.5246404,-6.6858625 6.6854693,-8.747834 8.0574355,-9.9402655 8.7267709,-10.522054 9.5977644,-10.812637 10.47284,-10.748441 Z m 3.067222,6.4394388 C 15.781736,-6.4215336 21.172314,-16.026798 20.104507,-17.149324 19.0367,-18.27185 9.886852,-13.406684 7.3653581,-11.26414 4.8438642,-9.1215962 -0.53399109,1.0601351 0.4273403,2.0064609 1.3886717,2.9527867 11.298356,-2.1963748 13.540046,-4.3089542 Z" inkscape:connector-curvature="0" sodipodi:nodetypes="cccccccczzzzz"/>
    <path style="display:inline;fill:none;stroke:#000001;stroke-width:1.58750391;stroke-linecap:round;stroke-linejoin:miter;stroke-miterlimit:4;stroke-dasharray:none;stroke-opacity:1" d="m -2.1879016,-25.263771 3.3810967,4.773162 M 19.623515,5.3672799 22.290238,9.5451285" id="path115567-3" sodipodi:nodetypes="cccc" inkscape:connector-curvature="0"/>
    <path id="path908" d="M 34.128724,-36.862758 V 31.079727" style="display:inline;fill:none;stroke:none;stroke-width:1.05833;stroke-linecap:square;stroke-linejoin:miter;stroke-miterlimit:4;stroke-dasharray:none;stroke-opacity:1"/>
    <g aria-label="DIRA" id="text912" style="font-weight:800;font-size:22.57780075px;line-height:1.25;font-family:'Avenir Next LT Pro';-inkscape-font-specification:'Avenir Next LT Pro, Ultra-Bold';display:inline;stroke-width:0.26458299" transform="matrix(1.5,0,0,1.5,-30.089588,1.445758)">
      <path d="m 62.205021,-6.4142779 q 0,2.0997355 -0.790223,3.6350259 -0.767645,1.5127127 -2.05458,2.5061359 -1.264356,0.97084543 -2.86738,1.4449793 -1.603024,0.451556 -3.251204,0.451556 H 47.281095 V -14.361664 h 5.779917 q 1.693335,0 3.341514,0.406401 1.64818,0.383822 2.935115,1.309512 1.286934,0.903112 2.077157,2.438403 0.790223,1.53529 0.790223,3.7930701 z m -4.018848,0 q 0,-1.354668 -0.451556,-2.2352023 -0.428979,-0.903112 -1.174046,-1.4224018 -0.72249,-0.541867 -1.670757,-0.767645 -0.92569,-0.225778 -1.919113,-0.225778 h -1.919113 v 9.3472097 h 1.828802 q 1.038578,0 1.986846,-0.2257781 0.970845,-0.2483558 1.693335,-0.790223 0.745067,-0.5418672 1.174046,-1.4449792 0.451556,-0.9031121 0.451556,-2.2352023 z" id="path834" inkscape:connector-curvature="0"/>
      <path d="M 64.756273,1.6234192 V -14.361664 h 3.883381 V 1.6234192 Z" id="path836" inkscape:connector-curvature="0"/>
      <path d="m 80.492975,1.6234192 -3.454403,-6.344362 h -1.309513 v 6.344362 h -3.79307 V -14.361664 h 6.096006 q 1.151468,0 2.235202,0.248356 1.106313,0.225778 1.964269,0.790223 0.880534,0.564445 1.399824,1.490135 0.519289,0.92569 0.519289,2.3029356 0,1.6256016 -0.880534,2.7319139 -0.880534,1.1063122 -2.438403,1.580446 l 4.176893,6.8410737 z M 80.334931,-9.462281 q 0,-0.564445 -0.248356,-0.903112 -0.225778,-0.361245 -0.609601,-0.541867 -0.361245,-0.2032 -0.835378,-0.270934 -0.451556,-0.06773 -0.880535,-0.06773 h -2.054579 v 3.7253369 h 1.828801 q 0.474134,0 0.970846,-0.067733 0.496711,-0.090311 0.903112,-0.2935115 0.4064,-0.2032002 0.654756,-0.5870228 0.270934,-0.3838226 0.270934,-0.9934232 z" id="path838" inkscape:connector-curvature="0"/>
      <path d="m 97.742375,1.6234192 -1.241779,-3.1383143 h -6.186317 l -1.174046,3.1383143 h -4.199471 l 6.705607,-15.9850832 h 3.747915 l 6.637876,15.9850832 z m -4.289782,-11.7178782 -2.032002,5.4864052 h 4.018848 z" id="path840" inkscape:connector-curvature="0"/>
    </g>
    <g aria-label="GEOSYSTEMS" id="text916" style="font-weight:500;font-size:7.05556011px;line-height:1.25;font-family:'Avenir Next LT Pro';-inkscape-font-specification:'Avenir Next LT Pro, Medium';letter-spacing:0.370417px;display:inline;stroke-width:0.26458299" transform="matrix(1.5,0,0,1.5,-30.089588,1.445758)">
      <path d="M 51.668177,4.2525389 Q 51.419821,3.9809 51.031766,3.8179167 50.651472,3.6549334 50.178044,3.6549334 q -0.481189,0 -0.869244,0.1785056 -0.388056,0.1707444 -0.659695,0.4734277 -0.271639,0.3026832 -0.4191,0.7062609 -0.147461,0.3958166 -0.147461,0.845961 0,0.4579055 0.147461,0.8614832 0.147461,0.4035777 0.4191,0.706261 0.271639,0.2949222 0.667456,0.4656666 0.395816,0.1707444 0.884766,0.1707444 0.388056,0 0.714022,-0.06985 0.325967,-0.06985 0.566561,-0.2017888 V 6.2626663 H 50.263416 V 5.6107331 h 1.979083 v 2.6620607 q -0.434622,0.2328333 -0.946855,0.357011 -0.512234,0.1241778 -1.1176,0.1241778 -0.644172,0 -1.18745,-0.20955 Q 48.455078,8.3271215 48.067022,7.9468272 47.678967,7.5587717 47.461655,7.0310162 47.244344,6.4954996 47.244344,5.8590886 q 0,-0.6441721 0.217311,-1.1719276 0.225073,-0.5355165 0.613128,-0.9080498 0.395817,-0.3802944 0.931333,-0.5898444 0.535517,-0.2095499 1.164167,-0.2095499 0.659694,0 1.171927,0.1940277 0.519995,0.1940278 0.861484,0.5199944 z" id="path861" inkscape:connector-curvature="0"/>
      <path d="m 54.700654,7.9313049 h 2.871611 V 8.6142826 H 53.932304 V 3.1194168 h 3.523544 v 0.6752166 h -2.755194 v 1.6453553 h 2.592211 V 6.099683 h -2.592211 z" id="path863" inkscape:connector-curvature="0"/>
      <path d="m 64.508579,5.8590886 q 0,0.636411 -0.225072,1.1719276 -0.217311,0.5277555 -0.605367,0.915811 -0.388055,0.3802943 -0.923572,0.5976054 -0.535516,0.20955 -1.164166,0.20955 -0.62865,0 -1.164167,-0.20955 Q 59.89848,8.3271215 59.510424,7.9468272 59.122369,7.5587717 58.905058,7.0310162 58.687747,6.4954996 58.687747,5.8590886 q 0,-0.6441721 0.217311,-1.1719276 0.217311,-0.5355165 0.605366,-0.9080498 0.388056,-0.3802944 0.915811,-0.5898444 0.535517,-0.2095499 1.164167,-0.2095499 0.62865,0 1.164166,0.2095499 0.535517,0.20955 0.923572,0.5898444 0.388056,0.3725333 0.605367,0.9080498 0.225072,0.5277555 0.225072,1.1719276 z m -0.830439,0 q 0,-0.4501444 -0.147461,-0.845961 Q 63.383218,4.6095499 63.111579,4.3068667 62.83994,4.0041834 62.451885,3.833439 62.071591,3.6549334 61.590402,3.6549334 q -0.473428,0 -0.861483,0.1785056 -0.380295,0.1707444 -0.651934,0.4734277 -0.263877,0.3026832 -0.411338,0.7062609 -0.147462,0.3958166 -0.147462,0.845961 0,0.4579055 0.147462,0.8614832 0.147461,0.4035777 0.419099,0.706261 0.271639,0.2949222 0.651934,0.4656666 0.380294,0.1707444 0.853722,0.1707444 0.473427,0 0.861483,-0.1707444 0.388055,-0.1707444 0.659694,-0.4656666 0.271639,-0.3026833 0.4191,-0.706261 0.147461,-0.4035777 0.147461,-0.8614832 z" id="path865" inkscape:connector-curvature="0"/>
      <path d="M 69.658649,4.1361222 Q 69.495666,3.9110501 69.216266,3.7713501 68.936866,3.623889 68.587616,3.623889 q -0.186267,0 -0.380294,0.054328 -0.186267,0.046567 -0.341489,0.1629833 -0.155222,0.1086555 -0.256117,0.2793999 -0.09313,0.1629833 -0.09313,0.3958166 0,0.2250722 0.08537,0.3802944 0.09313,0.1474611 0.240594,0.2561166 0.155223,0.1008945 0.357012,0.1785056 0.209549,0.06985 0.442383,0.147461 0.2794,0.085372 0.566561,0.1940278 0.287161,0.1086555 0.519994,0.287161 0.232833,0.1785056 0.380295,0.4501444 0.147461,0.2638778 0.147461,0.6752166 0,0.426861 -0.162984,0.7450665 -0.155222,0.3104444 -0.4191,0.5199944 -0.263877,0.2017888 -0.613127,0.3026833 -0.341489,0.1008944 -0.706261,0.1008944 -0.519995,0 -1.008945,-0.2017889 Q 66.86465,8.3504049 66.546444,7.9545883 L 67.14405,7.4501161 q 0.194027,0.2871611 0.519994,0.4656666 0.325967,0.1785055 0.706261,0.1785055 0.194028,0 0.388055,-0.054328 0.194028,-0.054328 0.34925,-0.1707444 0.162984,-0.1164167 0.263878,-0.2871611 0.100895,-0.1785055 0.100895,-0.426861 0,-0.2483556 -0.108656,-0.4113389 -0.100894,-0.1707444 -0.2794,-0.287161 Q 68.905822,6.3402774 68.665227,6.2626663 68.432394,6.1772941 68.168516,6.0919219 67.904638,6.0143108 67.648522,5.9056553 67.392405,5.7892386 67.190616,5.6184942 66.988827,5.4399887 66.86465,5.1838721 66.740472,4.9277554 66.740472,4.5474611 q 0,-0.4113389 0.162983,-0.706261 0.170745,-0.2949222 0.434622,-0.48895 0.271639,-0.1940277 0.605367,-0.2793999 0.341489,-0.093133 0.682978,-0.093133 0.481188,0 0.900288,0.1707444 0.4191,0.1707444 0.675217,0.4579055 z" id="path867" inkscape:connector-curvature="0"/>
      <path d="M 73.605281,8.6142826 H 72.82917 V 6.239383 L 70.772476,3.1194168 h 0.946855 l 1.521178,2.4835552 1.528938,-2.4835552 h 0.892528 L 73.605281,6.239383 Z" id="path869" inkscape:connector-curvature="0"/>
      <path d="M 79.208463,4.1361222 Q 79.04548,3.9110501 78.76608,3.7713501 78.48668,3.623889 78.13743,3.623889 q -0.186266,0 -0.380294,0.054328 -0.186267,0.046567 -0.341489,0.1629833 -0.155222,0.1086555 -0.256117,0.2793999 -0.09313,0.1629833 -0.09313,0.3958166 0,0.2250722 0.08537,0.3802944 0.09313,0.1474611 0.240595,0.2561166 0.155222,0.1008945 0.357011,0.1785056 0.20955,0.06985 0.442383,0.147461 0.2794,0.085372 0.566561,0.1940278 0.287161,0.1086555 0.519994,0.287161 0.232834,0.1785056 0.380295,0.4501444 0.147461,0.2638778 0.147461,0.6752166 0,0.426861 -0.162983,0.7450665 -0.155223,0.3104444 -0.4191,0.5199944 -0.263878,0.2017888 -0.613128,0.3026833 -0.341489,0.1008944 -0.706261,0.1008944 -0.519994,0 -1.008944,-0.2017889 -0.481189,-0.2017888 -0.799395,-0.5976054 l 0.597606,-0.5044722 q 0.194028,0.2871611 0.519994,0.4656666 0.325967,0.1785055 0.706261,0.1785055 0.194028,0 0.388056,-0.054328 0.194027,-0.054328 0.34925,-0.1707444 0.162983,-0.1164167 0.263877,-0.2871611 0.100895,-0.1785055 0.100895,-0.426861 0,-0.2483556 -0.108656,-0.4113389 Q 78.812648,6.5731106 78.634142,6.456694 78.455636,6.3402774 78.215041,6.2626663 77.982208,6.1772941 77.71833,6.0919219 77.454453,6.0143108 77.198336,5.9056553 76.942219,5.7892386 76.74043,5.6184942 76.538642,5.4399887 76.414464,5.1838721 76.290286,4.9277554 76.290286,4.5474611 q 0,-0.4113389 0.162983,-0.706261 0.170745,-0.2949222 0.434623,-0.48895 0.271638,-0.1940277 0.605366,-0.2793999 0.341489,-0.093133 0.682978,-0.093133 0.481189,0 0.900289,0.1707444 0.419099,0.1707444 0.675216,0.4579055 z" id="path871" inkscape:connector-curvature="0"/>
      <path d="M 83.0636,8.6142826 H 82.295251 V 3.7946334 H 80.533479 V 3.1194168 h 4.291893 V 3.7946334 H 83.0636 Z" id="path873" inkscape:connector-curvature="0"/>
      <path d="m 86.693671,7.9313049 h 2.871611 V 8.6142826 H 85.925321 V 3.1194168 h 3.523544 v 0.6752166 h -2.755194 v 1.6453553 h 2.592211 V 6.099683 h -2.592211 z" id="path875" inkscape:connector-curvature="0"/>
      <path d="m 93.800731,7.3414606 h 0.01552 l 1.622072,-4.2220438 h 1.195211 v 5.4948658 h -0.76835 v -4.594577 h -0.01552 l -1.823861,4.594577 h -0.48895 l -1.816099,-4.594577 h -0.01552 v 4.594577 H 90.960165 V 3.1194168 h 1.195211 z" id="path877" inkscape:connector-curvature="0"/>
      <path d="m 101.07077,4.1361222 q -0.16298,-0.2250721 -0.44238,-0.3647721 -0.2794,-0.1474611 -0.628651,-0.1474611 -0.186267,0 -0.380295,0.054328 -0.186266,0.046567 -0.341488,0.1629833 -0.155223,0.1086555 -0.256117,0.2793999 -0.09313,0.1629833 -0.09313,0.3958166 0,0.2250722 0.08537,0.3802944 0.09313,0.1474611 0.240594,0.2561166 0.155222,0.1008945 0.357011,0.1785056 0.20955,0.06985 0.442386,0.147461 0.2794,0.085372 0.56656,0.1940278 0.28716,0.1086555 0.51999,0.287161 0.23284,0.1785056 0.3803,0.4501444 0.14746,0.2638778 0.14746,0.6752166 0,0.426861 -0.16299,0.7450665 -0.15522,0.3104444 -0.4191,0.5199944 -0.26387,0.2017888 -0.61312,0.3026833 -0.34149,0.1008944 -0.706264,0.1008944 -0.519994,0 -1.008944,-0.2017889 -0.481189,-0.2017888 -0.799394,-0.5976054 l 0.597605,-0.5044722 q 0.194028,0.2871611 0.519995,0.4656666 0.325966,0.1785055 0.706261,0.1785055 0.194027,0 0.388051,-0.054328 0.19403,-0.054328 0.34925,-0.1707444 0.16299,-0.1164167 0.26388,-0.2871611 0.1009,-0.1785055 0.1009,-0.426861 0,-0.2483556 -0.10866,-0.4113389 -0.10089,-0.1707444 -0.2794,-0.287161 -0.17851,-0.1164167 -0.4191,-0.1940278 Q 99.844517,6.1772941 99.580639,6.0919219 99.316761,6.0143108 99.060644,5.9056553 98.804528,5.7892386 98.602739,5.6184942 98.40095,5.4399887 98.276772,5.1838721 98.152595,4.9277554 98.152595,4.5474611 q 0,-0.4113389 0.162983,-0.706261 0.170744,-0.2949222 0.434622,-0.48895 0.271639,-0.1940277 0.605367,-0.2793999 0.341488,-0.093133 0.682973,-0.093133 0.48119,0 0.90029,0.1707444 0.4191,0.1707444 0.67522,0.4579055 z" id="path879" inkscape:connector-curvature="0"/>
    </g>
  </g>
</svg>