<?xml version="1.0" encoding="UTF-8" standalone="no"?>
<!-- Created with Inkscape (http://www.inkscape.org/) -->

<svg
   width="364.63116pt"
   height="248.16956pt"
   viewBox="0 0 128.63377 87.548702"
   version="1.1"
   id="svg5"
   inkscape:version="1.1.1 (3bf5ae0d25, 2021-09-20)"
   sodipodi:docname="LogoStudy.svg"
   inkscape:export-filename="/home/ujr/dira/www/docs/img/logo-study-globe-white.png"
   inkscape:export-xdpi="149.98441"
   inkscape:export-ydpi="149.98441"
   enable-background="new"
   xmlns:inkscape="http://www.inkscape.org/namespaces/inkscape"
   xmlns:sodipodi="http://sodipodi.sourceforge.net/DTD/sodipodi-0.dtd"
   xmlns:xlink="http://www.w3.org/1999/xlink"
   xmlns="http://www.w3.org/2000/svg"
   xmlns:svg="http://www.w3.org/2000/svg"
   xmlns:rdf="http://www.w3.org/1999/02/22-rdf-syntax-ns#"
   xmlns:cc="http://creativecommons.org/ns#"
   xmlns:dc="http://purl.org/dc/elements/1.1/">
  <title
     id="title37">Logo-Studie Dira</title>
  <sodipodi:namedview
     id="namedview7"
     pagecolor="#ffffff"
     bordercolor="#666666"
     borderopacity="1.0"
     inkscape:pageshadow="2"
     inkscape:pageopacity="0.0"
     inkscape:pagecheckerboard="0"
     inkscape:document-units="pt"
     showgrid="false"
     inkscape:zoom="2.0190768"
     inkscape:cx="272.64936"
     inkscape:cy="173.09891"
     inkscape:window-width="1920"
     inkscape:window-height="1017"
     inkscape:window-x="-8"
     inkscape:window-y="-8"
     inkscape:window-maximized="1"
     inkscape:current-layer="g1126"
     showguides="false"
     units="pt"
     fit-margin-top="20"
     fit-margin-left="20"
     fit-margin-right="20"
     fit-margin-bottom="20"
     lock-margins="true" />
  <defs
     id="defs2">
    <linearGradient
       inkscape:collect="always"
       id="dark_26_to_40">
      <stop
         style="stop-color:#262626;stop-opacity:1;"
         offset="0"
         id="stop74026" />
      <stop
         style="stop-color:#595959;stop-opacity:1"
         offset="1"
         id="stop74028" />
    </linearGradient>
    <linearGradient
       inkscape:collect="always"
       xlink:href="#dark_26_to_40"
       id="linearGradient74032"
       x1="15.123165"
       y1="72.452606"
       x2="129.64583"
       y2="13.010426"
       gradientUnits="userSpaceOnUse" />
    <filter
       inkscape:collect="always"
       style="color-interpolation-filters:sRGB"
       id="filter920"
       x="-0.011347919"
       y="-0.0077884549"
       width="1.0179011"
       height="1.0155769">
      <feBlend
         inkscape:collect="always"
         mode="multiply"
         in2="BackgroundImage"
         id="feBlend922" />
    </filter>
  </defs>
  <g
     inkscape:groupmode="layer"
     id="layer9"
     inkscape:label="Palette"
     style="display:none"
     sodipodi:insensitive="true">
    <rect
       transform="translate(-8.0676066,-5.9548698)"
       style="display:inline;fill:#dcedc2;fill-opacity:1;stroke:none;stroke-width:1.05833006;stroke-linecap:round;stroke-linejoin:round;stroke-miterlimit:5;stroke-dasharray:none;stroke-dashoffset:0;stroke-opacity:0.45490202"
       id="rect72361"
       width="13.098185"
       height="6.8110561"
       x="19.385313"
       y="79.636963" />
    <rect
       transform="translate(-8.0676066,-5.9548698)"
       style="display:inline;fill:#dcedc2;fill-opacity:1;stroke:none;stroke-width:1.05833006;stroke-linecap:round;stroke-linejoin:round;stroke-miterlimit:5;stroke-dasharray:none;stroke-dashoffset:0;stroke-opacity:0.45490202"
       id="rect72361-7"
       width="13.098185"
       height="6.8110561"
       x="32.483498"
       y="79.636963" />
    <rect
       transform="translate(-8.0676066,-5.9548698)"
       style="display:inline;fill:#dcedc2;fill-opacity:1;stroke:none;stroke-width:1.05833006;stroke-linecap:round;stroke-linejoin:round;stroke-miterlimit:5;stroke-dasharray:none;stroke-dashoffset:0;stroke-opacity:0.45490202"
       id="rect72361-1"
       width="13.098185"
       height="6.8110561"
       x="32.483498"
       y="79.636963" />
    <rect
       transform="translate(-8.0676066,-5.9548698)"
       style="display:inline;fill:#404040;fill-opacity:1;stroke:none;stroke-width:1.05833006;stroke-linecap:round;stroke-linejoin:round;stroke-miterlimit:5;stroke-dasharray:none;stroke-dashoffset:0;stroke-opacity:0.45490202"
       id="rect72361-1-2"
       width="13.098185"
       height="6.8110561"
       x="32.483498"
       y="79.636963" />
    <rect
       transform="translate(-8.0676066,-5.9548698)"
       style="display:inline;fill:#f3f9e9;fill-opacity:1;stroke:none;stroke-width:1.05833006;stroke-linecap:round;stroke-linejoin:round;stroke-miterlimit:5;stroke-dasharray:none;stroke-dashoffset:0;stroke-opacity:0.45490202"
       id="rect72361-1-2-8"
       width="13.098185"
       height="6.8110561"
       x="45.58168"
       y="79.636963" />
    <rect
       transform="translate(-8.0676066,-5.9548698)"
       style="display:inline;fill:#c5e19b;fill-opacity:1;stroke:none;stroke-width:1.05833006;stroke-linecap:round;stroke-linejoin:round;stroke-miterlimit:5;stroke-dasharray:none;stroke-dashoffset:0;stroke-opacity:0.45490202"
       id="rect72361-1-2-8-0"
       width="13.098185"
       height="6.8110561"
       x="58.679863"
       y="79.636963" />
    <rect
       transform="translate(-8.0676066,-5.9548698)"
       style="display:inline;fill:#595959;fill-opacity:1;stroke:none;stroke-width:1.05833006;stroke-linecap:round;stroke-linejoin:round;stroke-miterlimit:5;stroke-dasharray:none;stroke-dashoffset:0;stroke-opacity:0.45490202"
       id="rect72361-1-2-8-0-0"
       width="13.098185"
       height="6.8110561"
       x="71.778046"
       y="79.636963" />
    <rect
       transform="translate(-8.0676066,-5.9548698)"
       style="display:inline;fill:#262626;fill-opacity:1;stroke:none;stroke-width:1.05833006;stroke-linecap:round;stroke-linejoin:round;stroke-miterlimit:5;stroke-dasharray:none;stroke-dashoffset:0;stroke-opacity:0.45490202"
       id="rect72361-1-2-8-0-0-0"
       width="13.098185"
       height="6.8110561"
       x="84.876228"
       y="79.636963" />
  </g>
  <g
     inkscape:groupmode="layer"
     id="layer5"
     inkscape:label="Box"
     style="display:none"
     transform="translate(-8.0676066,-5.9548699)"
     sodipodi:insensitive="true">
    <rect
       style="vector-effect:non-scaling-stroke;fill:none;fill-opacity:1;stroke:#000000;stroke-linecap:round;stroke-linejoin:miter;stroke-miterlimit:5;stroke-dasharray:none;stroke-dashoffset:0;stroke-opacity:1"
       id="rect53134"
       width="114.52267"
       height="59.442181"
       x="15.123162"
       y="13.010426" />
  </g>
  <g
     inkscape:groupmode="layer"
     id="layer6"
     inkscape:label="Bkgd black"
     style="display:none"
     sodipodi:insensitive="true"
     transform="translate(-8.0676066,-5.9548699)">
    <rect
       style="display:inline;vector-effect:non-scaling-stroke;fill:#000000;fill-opacity:1;stroke:none;stroke-linecap:round;stroke-linejoin:miter;stroke-miterlimit:5;stroke-dasharray:none;stroke-dashoffset:0;stroke-opacity:1"
       id="rect53134-9"
       width="114.52267"
       height="59.442181"
       x="15.123161"
       y="13.010425" />
  </g>
  <g
     inkscape:groupmode="layer"
     id="layer7"
     inkscape:label="Bkgd dark"
     style="display:none"
     sodipodi:insensitive="true"
     transform="translate(-8.0676066,-5.9548699)">
    <rect
       style="display:inline;vector-effect:non-scaling-stroke;fill:url(#linearGradient74032);fill-opacity:1;stroke:none;stroke-linecap:round;stroke-linejoin:miter;stroke-miterlimit:5;stroke-dasharray:none;stroke-dashoffset:0;stroke-opacity:1"
       id="rect53134-1"
       width="114.52267"
       height="59.442181"
       x="15.123165"
       y="13.010426" />
  </g>
  <g
     inkscape:groupmode="layer"
     id="layer8"
     inkscape:label="Bkgd white"
     style="display:none"
     sodipodi:insensitive="true"
     transform="translate(-8.0676066,-5.9548699)">
    <rect
       style="display:inline;vector-effect:non-scaling-stroke;fill:#ffffff;fill-opacity:1;stroke:none;stroke-linecap:round;stroke-linejoin:miter;stroke-miterlimit:5;stroke-dasharray:none;stroke-dashoffset:0;stroke-opacity:1"
       id="rect53134-1-3"
       width="114.52267"
       height="59.442181"
       x="15.123165"
       y="13.010426" />
  </g>
  <g
     inkscape:groupmode="layer"
     id="layer2"
     inkscape:label="Logo Globe"
     style="display:none"
     sodipodi:insensitive="true"
     transform="translate(-8.0676066,-5.9548699)">
    <g
       id="g85510">
      <g
         id="g85496">
        <path
           id="path44877"
           style="display:inline;fill:none;fill-opacity:0.45490202;stroke:#dcedc2;stroke-width:1.05833006;stroke-linecap:square;stroke-miterlimit:4;stroke-dasharray:none;stroke-opacity:1"
           d="m 46.988968,48.652984 -0.887436,0.616664 c -2.487098,1.729668 -5.64009,2.514776 -8.869472,1.945349 -6.458764,-1.138854 -10.777284,-7.264591 -9.645684,-13.682216 0.565801,-3.208813 2.387003,-5.883041 4.8741,-7.612709 l 0.814301,-0.540161"
           sodipodi:nodetypes="ccsccc"
           inkscape:connector-curvature="0" />
        <path
           style="display:inline;fill:none;stroke:#dcedc2;stroke-width:0.881944;stroke-linecap:round;stroke-linejoin:miter;stroke-miterlimit:4;stroke-dasharray:none;stroke-opacity:1"
           d="M 32.495269,29.925728 46.094235,49.264005"
           id="path47059"
           sodipodi:nodetypes="cc"
           inkscape:connector-curvature="0" />
      </g>
      <g
         id="g85492">
        <ellipse
           style="display:inline;fill:none;fill-opacity:0.45490202;stroke:#dcedc2;stroke-width:1.34376001;stroke-linecap:square;stroke-miterlimit:4;stroke-dasharray:none;stroke-opacity:1"
           id="path44554"
           cx="45.659286"
           cy="32.281479"
           rx="8.9109497"
           ry="8.7722588"
           transform="rotate(10)" />
        <path
           style="display:inline;fill:none;stroke:#dcedc2;stroke-width:0.881944;stroke-linecap:round;stroke-linejoin:miter;stroke-miterlimit:4;stroke-dasharray:none;stroke-opacity:1"
           d="M 42.820338,31.849092 30.866003,40.13663"
           id="path47284"
           sodipodi:nodetypes="cc"
           inkscape:connector-curvature="0" />
        <path
           style="display:inline;fill:none;stroke:#dcedc2;stroke-width:0.881944;stroke-linecap:round;stroke-linejoin:miter;stroke-miterlimit:4;stroke-dasharray:none;stroke-opacity:1"
           d="M 46.262052,34.749781 32.294918,44.488185"
           id="path47286"
           sodipodi:nodetypes="cc"
           inkscape:connector-curvature="0" />
        <path
           style="display:inline;fill:none;stroke:#dcedc2;stroke-width:0.881944;stroke-linecap:round;stroke-linejoin:miter;stroke-miterlimit:4;stroke-dasharray:none;stroke-opacity:1"
           d="M 47.947069,38.756057 35.839645,47.358234"
           id="path47288"
           sodipodi:nodetypes="cc"
           inkscape:connector-curvature="0" />
        <path
           style="display:inline;fill:none;stroke:#dcedc2;stroke-width:0.881944;stroke-linecap:round;stroke-linejoin:miter;stroke-miterlimit:4;stroke-dasharray:none;stroke-opacity:1"
           d="m 44.409449,46.917133 c 1.988444,-4.456277 0.501987,-7.337761 -1.407432,-10.009118 -1.909419,-2.671357 -5.020157,-4.627304 -8.556547,-4.339426 -1.658123,2.914148 -0.836832,6.812554 1.000869,9.546992 1.837701,2.734437 5.295376,5.413462 8.96311,4.801552 z"
           id="path47290"
           sodipodi:nodetypes="czccc"
           inkscape:connector-curvature="0" />
      </g>
      <g
         id="g85485">
        <path
           style="display:inline;fill:none;stroke:#dcedc2;stroke-width:1.76389003;stroke-linecap:butt;stroke-linejoin:miter;stroke-miterlimit:4;stroke-dasharray:none;stroke-opacity:1"
           d="m 34.37176,54.907431 h 9.976549"
           id="path44687"
           sodipodi:nodetypes="cc"
           inkscape:connector-curvature="0" />
        <path
           style="display:inline;fill:none;stroke:#dcedc2;stroke-width:1.20929003;stroke-linecap:round;stroke-linejoin:miter;stroke-miterlimit:4;stroke-dasharray:none;stroke-opacity:1"
           d="m 39.219642,52.053203 v 2.400321"
           id="path49149"
           inkscape:connector-curvature="0" />
      </g>
    </g>
  </g>
  <g
     inkscape:groupmode="layer"
     id="g85538"
     inkscape:label="Logo Globe (black)"
     style="display:none"
     transform="translate(-8.0676066,-5.9548699)"
     sodipodi:insensitive="true">
    <g
       id="g85536">
      <g
         id="g85516">
        <path
           id="path85512"
           style="display:inline;fill:none;fill-opacity:0.454902;stroke:#000000;stroke-width:1.05833;stroke-linecap:square;stroke-miterlimit:4;stroke-dasharray:none;stroke-opacity:1"
           d="m 46.988968,48.652984 -0.887436,0.616664 c -2.487098,1.729668 -5.64009,2.514776 -8.869472,1.945349 -6.458764,-1.138854 -10.777284,-7.264591 -9.645684,-13.682216 0.565801,-3.208813 2.387003,-5.883041 4.8741,-7.612709 l 0.814301,-0.540161"
           sodipodi:nodetypes="ccsccc"
           inkscape:connector-curvature="0" />
        <path
           style="display:inline;fill:none;stroke:#000000;stroke-width:0.881944;stroke-linecap:round;stroke-linejoin:miter;stroke-miterlimit:4;stroke-dasharray:none;stroke-opacity:1"
           d="M 32.495269,29.925728 46.094235,49.264005"
           id="path85514"
           sodipodi:nodetypes="cc"
           inkscape:connector-curvature="0" />
      </g>
      <g
         id="g85528">
        <ellipse
           style="display:inline;fill:none;fill-opacity:0.454902;stroke:#000000;stroke-width:1.34376;stroke-linecap:square;stroke-miterlimit:4;stroke-dasharray:none;stroke-opacity:1"
           id="ellipse85518"
           cx="45.659286"
           cy="32.281479"
           rx="8.9109497"
           ry="8.7722588"
           transform="rotate(10)" />
        <path
           style="display:inline;fill:none;stroke:#000000;stroke-width:0.881944;stroke-linecap:round;stroke-linejoin:miter;stroke-miterlimit:4;stroke-dasharray:none;stroke-opacity:1"
           d="M 42.820338,31.849092 30.866003,40.13663"
           id="path85520"
           sodipodi:nodetypes="cc"
           inkscape:connector-curvature="0" />
        <path
           style="display:inline;fill:none;stroke:#000001;stroke-width:0.881944;stroke-linecap:round;stroke-linejoin:miter;stroke-miterlimit:4;stroke-dasharray:none;stroke-opacity:1"
           d="M 46.262052,34.749781 32.294918,44.488185"
           id="path85522"
           sodipodi:nodetypes="cc"
           inkscape:connector-curvature="0" />
        <path
           style="display:inline;fill:none;stroke:#000000;stroke-width:0.881944;stroke-linecap:round;stroke-linejoin:miter;stroke-miterlimit:4;stroke-dasharray:none;stroke-opacity:0.997793"
           d="M 47.947069,38.756057 35.839645,47.358234"
           id="path85524"
           sodipodi:nodetypes="cc"
           inkscape:connector-curvature="0" />
        <path
           style="display:inline;fill:none;stroke:#000001;stroke-width:0.881944;stroke-linecap:round;stroke-linejoin:miter;stroke-miterlimit:4;stroke-dasharray:none;stroke-opacity:1"
           d="m 44.409449,46.917133 c 1.988444,-4.456277 0.501987,-7.337761 -1.407432,-10.009118 -1.909419,-2.671357 -5.020157,-4.627304 -8.556547,-4.339426 -1.658123,2.914148 -0.836832,6.812554 1.000869,9.546992 1.837701,2.734437 5.295376,5.413462 8.96311,4.801552 z"
           id="path85526"
           sodipodi:nodetypes="czccc"
           inkscape:connector-curvature="0" />
      </g>
      <g
         id="g85534">
        <path
           style="display:inline;fill:none;stroke:#000000;stroke-width:1.76389;stroke-linecap:butt;stroke-linejoin:miter;stroke-miterlimit:4;stroke-dasharray:none;stroke-opacity:1"
           d="m 34.37176,54.907431 h 9.976549"
           id="path85530"
           sodipodi:nodetypes="cc"
           inkscape:connector-curvature="0" />
        <path
           style="display:inline;fill:none;stroke:#000000;stroke-width:1.20929;stroke-linecap:round;stroke-linejoin:miter;stroke-miterlimit:4;stroke-dasharray:none;stroke-opacity:1"
           d="m 39.219642,52.053203 v 2.400321"
           id="path85532"
           inkscape:connector-curvature="0" />
      </g>
    </g>
  </g>
  <g
     inkscape:groupmode="layer"
     id="g1126"
     inkscape:label="Logo Globe 2 (black)"
     style="display:inline"
     transform="translate(-8.0676066,-5.9548699)">
    <g
       id="g1104">
      <path
         id="path1100"
         style="display:inline;fill:none;fill-opacity:0.454902;stroke:#000000;stroke-width:1.05833;stroke-linecap:square;stroke-miterlimit:4;stroke-dasharray:none;stroke-opacity:1"
         d="m 46.988968,48.652984 -0.887436,0.616664 c -2.487098,1.729668 -5.64009,2.514776 -8.869472,1.945349 -6.458764,-1.138854 -10.777284,-7.264591 -9.645684,-13.682216 0.565801,-3.208813 2.387003,-5.883041 4.8741,-7.612709 l 0.814301,-0.540161"
         sodipodi:nodetypes="ccsccc"
         inkscape:connector-curvature="0" />
    </g>
    <ellipse
       style="display:inline;fill:none;fill-opacity:0.454902;stroke:#000000;stroke-width:1.34376;stroke-linecap:square;stroke-miterlimit:4;stroke-dasharray:none;stroke-opacity:1"
       id="ellipse1106"
       cx="45.659286"
       cy="32.281479"
       rx="8.9109497"
       ry="8.7722588"
       transform="rotate(10)" />
    <g
       id="g1122">
      <path
         style="display:inline;fill:none;stroke:#000000;stroke-width:1.76389;stroke-linecap:butt;stroke-linejoin:miter;stroke-miterlimit:4;stroke-dasharray:none;stroke-opacity:1"
         d="m 34.37176,54.907431 h 9.976549"
         id="path1118"
         sodipodi:nodetypes="cc"
         inkscape:connector-curvature="0" />
      <path
         style="display:inline;fill:none;stroke:#000000;stroke-width:1.20929;stroke-linecap:round;stroke-linejoin:miter;stroke-miterlimit:4;stroke-dasharray:none;stroke-opacity:1"
         d="m 39.219642,52.053203 v 2.400321"
         id="path1120"
         inkscape:connector-curvature="0" />
    </g>
    <path
       id="path115563-4"
       style="color:#000000;display:inline;fill:#000000;fill-opacity:1;stroke-width:0.338666;stroke-linecap:round;stroke-linejoin:round"
       d="m 36.249093,46.473048 c 1.730808,-1.678075 4.026598,-3.850544 5.070549,-5.720139 1.041523,-1.865261 1.495154,-4.94266 2.068055,-7.266119 0,0 0.05039,-0.488477 -0.170105,-0.607826 -0.220493,-0.119349 -0.64846,0.191942 -0.64846,0.191942 -1.632696,1.677171 -3.895765,3.602957 -4.92465,5.438454 -1.061586,1.893829 -1.586975,5.056374 -2.120367,7.403308 0,0 -0.163751,0.47641 0.09388,0.629975 0.257627,0.153564 0.631101,-0.06959 0.631101,-0.06959 z m 2.762992,-8.525852 c 0.01597,-0.0036 0.03198,-0.0068 0.04808,-0.01012 0.467293,-0.09357 0.949944,-0.006 1.35121,0.244543 0.878137,0.548855 1.137894,1.716717 0.580388,2.60876 -0.557372,0.892123 -1.720908,1.17061 -2.599166,0.621959 -0.878137,-0.548859 -1.13801,-1.717201 -0.580496,-2.609245 0.271985,-0.435221 0.704842,-0.743404 1.199986,-0.855937 z"
       inkscape:connector-curvature="0"
       sodipodi:nodetypes="cscscsczcccccccccc" />
    <path
       style="display:inline;fill:none;stroke:#000001;stroke-width:0.881944;stroke-linecap:round;stroke-linejoin:miter;stroke-miterlimit:4;stroke-dasharray:none;stroke-opacity:1"
       d="m 32.495269,29.925728 1.878387,2.651756 m 10.239066,14.365494 1.481513,2.321027"
       id="path115567-3"
       sodipodi:nodetypes="cccc"
       inkscape:connector-curvature="0" />
  </g>
  <g
     inkscape:groupmode="layer"
     id="layer4"
     inkscape:label="Logo Compass"
     style="display:none"
     transform="translate(-8.0676066,-5.9548699)"
     sodipodi:insensitive="true">
    <path
       style="color:#000000;fill:#dcedc2;fill-opacity:1;stroke:none;stroke-width:0.266667;stroke-linecap:round;stroke-linejoin:round;stroke-miterlimit:4;stroke-dasharray:none;stroke-opacity:1"
       d="M 98.694651,151.48581 C 92.051023,146.22082 87.640451,138.29791 87.165962,129.24417 86.2806,112.35046 99.43881,97.945635 116.66462,97.042868 c 3.9055,-0.204691 7.67472,0.303587 11.17963,1.407968 l 3.98849,-3.947948 v 0 c -4.75237,-1.893785 -9.98728,-2.817425 -15.43503,-2.531923 -2.1792,0.114217 -4.30299,0.418038 -6.35864,0.892713 v 0 C 93.300234,96.72885 81.175135,111.98341 82.09362,129.50918 c 0.597215,11.39563 6.578916,21.26335 15.377706,27.34795 z"
       id="path948"
       transform="matrix(0.26458333,0,0,0.26458333,8.0676066,5.9548699)"
       inkscape:connector-curvature="0"
       sodipodi:nodetypes="cscccccccscc" />
    <path
       style="color:#000000;fill:#dcedc2;fill-opacity:1;stroke:none;stroke-width:1.33333;stroke-linecap:round;stroke-linejoin:round;stroke-opacity:1"
       d="m 104.77061,160.75917 c 4.73394,1.87549 9.94332,2.78916 15.36389,2.50508 19.92417,-1.04417 35.32981,-17.86688 34.29853,-37.54495 -0.59621,-11.37647 -6.55675,-21.22709 -15.32916,-27.312058 l -1.313,5.308268 v 0 c 6.66574,5.26259 11.09432,13.19571 11.56982,22.2688 0.88536,16.89372 -12.26538,31.30484 -29.4912,32.2076 -4.00838,0.21008 -7.8736,-0.3315 -11.45708,-1.49781 z"
       id="path953"
       transform="matrix(0.26458333,0,0,0.26458333,8.0676066,5.9548699)"
       inkscape:connector-curvature="0"
       sodipodi:nodetypes="csscccsccc" />
    <path
       style="color:#000000;fill:#dcedc2;fill-opacity:1;stroke-width:1.33333;stroke-linecap:round;stroke-linejoin:round"
       d="m 138.19727,91.960938 c 0,0 -1.52018,1.444199 -3.78321,3.6875 l -3.78515,3.828124 c -6.42794,6.603038 -15.2149,16.226758 -19.26563,23.453128 -4.17947,7.45602 -8.04302,20.95932 -10.39062,30.19922 l -1.267582,5.15625 c -0.675469,2.85235 -1.058594,4.64257 -1.058594,4.64257 0,0 1.364836,-1.27717 3.472656,-3.34375 l 3.8125,-3.81445 c 6.56657,-6.6685 15.79035,-16.64525 19.90039,-24.00586 4.10049,-7.34354 7.74448,-20.32713 10,-29.47461 l 1.24024,-5.193357 c 0.70763,-3.100418 1.125,-5.134766 1.125,-5.134765 z m -19.875,28.572262 c 1.38462,-0.0122 2.7507,0.36749 3.93554,1.10742 3.45724,2.16085 4.48007,6.75756 2.28516,10.26954 -2.19438,3.51229 -6.77667,4.60926 -10.23438,2.44922 -3.45723,-2.16087 -4.48009,-6.76146 -2.28515,-10.27344 1.07081,-1.71347 2.77522,-2.9261 4.72461,-3.36914 0.0628,-0.0144 0.12607,-0.0261 0.18945,-0.0391 0.45993,-0.0921 0.92322,-0.14044 1.38477,-0.14453 z"
       transform="matrix(0.26458333,0,0,0.26458333,8.0676066,5.9548699)"
       id="path113"
       inkscape:connector-curvature="0" />
    <path
       id="path44877-5"
       style="display:inline;fill:none;fill-opacity:1;stroke:#dcedc2;stroke-width:1.05833;stroke-linecap:square;stroke-miterlimit:4;stroke-dasharray:none;stroke-opacity:1"
       d="m 46.988968,48.652984 -0.887436,0.616664 c -2.487098,1.729668 -5.64009,2.514776 -8.869472,1.945349 -6.458764,-1.138854 -10.777284,-7.264591 -9.645684,-13.682216 0.565801,-3.208813 2.387003,-5.883041 4.8741,-7.612709 l 0.814301,-0.540161"
       sodipodi:nodetypes="ccsccc"
       inkscape:connector-curvature="0" />
    <path
       style="display:inline;fill:none;stroke:#dcedc2;stroke-width:0.881944;stroke-linecap:round;stroke-linejoin:miter;stroke-miterlimit:4;stroke-dasharray:none;stroke-opacity:1"
       d="m 32.495269,29.925728 1.878387,2.651756 m 10.239066,14.365494 1.481513,2.321027"
       id="path47059-0"
       sodipodi:nodetypes="cccc"
       inkscape:connector-curvature="0" />
    <g
       id="g53962">
      <path
         style="display:inline;fill:none;stroke:#dcedc2;stroke-width:1.76389;stroke-linecap:butt;stroke-linejoin:miter;stroke-miterlimit:4;stroke-dasharray:none;stroke-opacity:1"
         d="m 34.37176,54.907431 h 9.976549"
         id="path44687-6"
         sodipodi:nodetypes="cc"
         inkscape:connector-curvature="0" />
      <path
         style="display:inline;fill:none;stroke:#dcedc2;stroke-width:1.27351;stroke-linecap:round;stroke-linejoin:miter;stroke-miterlimit:4;stroke-dasharray:none;stroke-opacity:1"
         d="m 39.219642,51.844525 v 2.661988"
         id="path49149-1"
         inkscape:connector-curvature="0" />
    </g>
  </g>
  <g
     inkscape:groupmode="layer"
     id="g115575"
     inkscape:label="Logo Compass (black)"
     style="display:none"
     transform="translate(-8.0676066,-5.9548699)"
     sodipodi:insensitive="true">
    <path
       id="path115563"
       style="color:#000000;fill:#000000;fill-opacity:1;stroke-width:0.352777;stroke-linecap:round;stroke-linejoin:round"
       d="m 37.182111,30.525051 c -4.428818,1.02266 -7.636917,5.058763 -7.393901,9.69579 0.171052,3.263895 2.011571,6.054059 4.659845,7.613564 0.09171,-0.387252 0.205262,-0.852241 0.335301,-1.364056 -2.090401,-1.368963 -3.513696,-3.659863 -3.653089,-6.319626 -0.234252,-4.469794 3.247191,-8.281071 7.804853,-8.519928 1.312894,-0.06881 2.567584,0.166899 3.694582,0.643708 0.372362,-0.382507 0.710024,-0.723523 1.001467,-1.012425 -1.430788,-0.703261 -3.059215,-1.062707 -4.76667,-0.973224 -0.57658,0.03022 -1.138498,0.110606 -1.682388,0.236197 z m 6.449058,0.737027 c 0.240228,0.118079 0.475058,0.245777 0.703584,0.382775 0.187228,-0.820319 0.297342,-1.358478 0.297342,-1.358478 0,0 -0.402167,0.382163 -1.000926,0.975703 z m 0.703584,0.382775 c -0.09061,0.397002 -0.201368,0.859654 -0.328212,1.374086 2.04983,1.373668 3.441653,3.640653 3.579413,6.269278 0.234252,4.469797 -3.245215,8.282739 -7.802879,8.521595 -1.310031,0.06866 -2.56227,-0.166133 -3.687607,-0.641073 -0.376436,0.382277 -0.720351,0.726344 -1.009059,1.009401 1.431079,0.703526 3.05933,1.063213 4.766784,0.973729 5.271603,-0.276271 9.347677,-4.72728 9.074818,-9.933767 C 48.75837,35.98112 46.947315,33.21103 44.334753,31.644853 Z M 35.086409,48.17814 c -0.217439,-0.106894 -0.430454,-0.221309 -0.638354,-0.343735 -0.178718,0.754685 -0.280195,1.228294 -0.280195,1.228294 0,0 0.360856,-0.337778 0.918549,-0.884559 z m 1.009059,-1.009401 c 1.737404,-1.764374 4.177993,-4.404108 5.265442,-6.351603 1.08492,-1.94298 2.048859,-5.377927 2.645631,-7.798197 -0.431694,-0.289295 -0.892294,-0.539436 -1.376839,-0.744436 -1.700725,1.747053 -4.025328,4.293627 -5.097084,6.205603 -1.105818,1.972739 -2.128125,5.54552 -2.749262,7.990243 0.412818,0.270347 0.852037,0.504217 1.312112,0.69839 z m 2.861737,-9.274221 c 0.01663,-0.0038 0.03331,-0.0071 0.05008,-0.01054 0.486764,-0.09747 0.989525,-0.0063 1.40751,0.254732 0.914727,0.571724 1.185307,1.788247 0.604571,2.717458 -0.580596,0.929295 -1.792612,1.219386 -2.707464,0.647874 -0.914726,-0.571728 -1.185427,-1.788751 -0.604684,-2.717963 0.283318,-0.453355 0.734211,-0.774379 1.249986,-0.891601 z"
       inkscape:connector-curvature="0" />
    <path
       id="path115565"
       style="display:inline;fill:none;fill-opacity:1;stroke:#000000;stroke-width:1.05833;stroke-linecap:square;stroke-miterlimit:4;stroke-dasharray:none;stroke-opacity:1"
       d="m 46.988968,48.652984 -0.887436,0.616664 c -2.487098,1.729668 -5.64009,2.514776 -8.869472,1.945349 -6.458764,-1.138854 -10.777284,-7.264591 -9.645684,-13.682216 0.565801,-3.208813 2.387003,-5.883041 4.8741,-7.612709 l 0.814301,-0.540161"
       sodipodi:nodetypes="ccsccc"
       inkscape:connector-curvature="0" />
    <path
       style="display:inline;fill:none;stroke:#000001;stroke-width:0.881944;stroke-linecap:round;stroke-linejoin:miter;stroke-miterlimit:4;stroke-dasharray:none;stroke-opacity:1"
       d="m 32.495269,29.925728 1.878387,2.651756 m 10.239066,14.365494 1.481513,2.321027"
       id="path115567"
       sodipodi:nodetypes="cccc"
       inkscape:connector-curvature="0" />
    <g
       id="g115573">
      <path
         style="display:inline;fill:none;stroke:#000000;stroke-width:1.76389;stroke-linecap:butt;stroke-linejoin:miter;stroke-miterlimit:4;stroke-dasharray:none;stroke-opacity:1"
         d="m 34.37176,54.907431 h 9.976549"
         id="path115569"
         sodipodi:nodetypes="cc"
         inkscape:connector-curvature="0" />
      <path
         style="display:inline;fill:none;stroke:#000000;stroke-width:1.27351;stroke-linecap:round;stroke-linejoin:miter;stroke-miterlimit:4;stroke-dasharray:none;stroke-opacity:1"
         d="m 39.219642,51.844525 v 2.661988"
         id="path115571"
         inkscape:connector-curvature="0" />
    </g>
  </g>
  <g
     inkscape:groupmode="layer"
     id="layer3"
     inkscape:label="Schrift A"
     style="display:none"
     transform="translate(-8.0676066,-5.9548699)"
     sodipodi:insensitive="true">
    <path
       style="fill:none;stroke:#dcedc2;stroke-width:0.70555598;stroke-linecap:square;stroke-linejoin:miter;stroke-miterlimit:4;stroke-dasharray:none;stroke-opacity:1"
       d="m 56.655149,19.734634 v 45.29499"
       id="path81"
       inkscape:connector-curvature="0" />
    <text
       xml:space="preserve"
       style="font-style:normal;font-weight:normal;font-size:22.5778px;line-height:1.25;font-family:sans-serif;fill:#dcedc2;fill-opacity:1;stroke:none;stroke-width:0.264583"
       x="61.534191"
       y="46.897064"
       id="text8117"><tspan
         sodipodi:role="line"
         id="tspan8115"
         style="font-style:normal;font-variant:normal;font-weight:800;font-stretch:normal;font-size:22.5778px;font-family:'Avenir Next LT Pro';-inkscape-font-specification:'Avenir Next LT Pro, Ultra-Bold';font-variant-ligatures:normal;font-variant-caps:normal;font-variant-numeric:normal;fill:#dcedc2;fill-opacity:1;stroke-width:0.264583"
         x="61.534191"
         y="46.897064"
         dx="-1">DIRA</tspan></text>
    <text
       xml:space="preserve"
       style="font-style:normal;font-weight:normal;font-size:7.05556px;line-height:1.25;font-family:sans-serif;letter-spacing:0.264583px;fill:#dcedc2;fill-opacity:1;stroke:none;stroke-width:0.264583"
       x="61.757565"
       y="53.887928"
       id="text18037"><tspan
         sodipodi:role="line"
         id="tspan27201"
         style="font-style:normal;font-variant:normal;font-weight:normal;font-stretch:normal;font-size:6.35px;font-family:sans-serif;-inkscape-font-specification:'sans-serif, Normal';font-variant-ligatures:normal;font-variant-caps:normal;font-variant-numeric:normal;fill:#dcedc2;fill-opacity:1"
         x="61.757565"
         y="53.887928"
         dx="0 0 0 1 -0.25 -0.2">GEOSYSTEMS</tspan></text>
  </g>
  <g
     transform="translate(-8.0676066,-5.9548699)"
     style="display:inline"
     inkscape:label="Schrift A (black)"
     id="g918"
     inkscape:groupmode="layer"
     sodipodi:insensitive="true">
    <path
       id="path908"
       d="m 56.655149,19.734634 v 45.29499"
       style="fill:none;stroke:#000000;stroke-width:0.705556;stroke-linecap:square;stroke-linejoin:miter;stroke-miterlimit:4;stroke-dasharray:none;stroke-opacity:1"
       inkscape:connector-curvature="0" />
    <text
       id="text912"
       y="46.897064"
       x="61.534191"
       style="font-style:normal;font-weight:normal;font-size:22.5778px;line-height:1.25;font-family:sans-serif;fill:#000000;fill-opacity:1;stroke:none;stroke-width:0.264583"
       xml:space="preserve"><tspan
         dx="-1"
         y="46.897064"
         x="61.534191"
         style="font-style:normal;font-variant:normal;font-weight:800;font-stretch:normal;font-size:22.5778px;font-family:'Avenir Next LT Pro';-inkscape-font-specification:'Avenir Next LT Pro, Ultra-Bold';font-variant-ligatures:normal;font-variant-caps:normal;font-variant-numeric:normal;fill:#000000;fill-opacity:1;stroke-width:0.264583"
         id="tspan910"
         sodipodi:role="line">DIRA</tspan></text>
    <text
       id="text916"
       y="53.887928"
       x="61.757565"
       style="font-style:normal;font-weight:normal;font-size:7.05556px;line-height:1.25;font-family:sans-serif;letter-spacing:0.264583px;fill:#000000;fill-opacity:1;stroke:none;stroke-width:0.264583"
       xml:space="preserve"><tspan
         dx="0 0 0 1 -0.25 -0.2"
         y="53.887928"
         x="61.757565"
         style="font-style:normal;font-variant:normal;font-weight:normal;font-stretch:normal;font-size:6.35px;font-family:sans-serif;-inkscape-font-specification:'sans-serif, Normal';font-variant-ligatures:normal;font-variant-caps:normal;font-variant-numeric:normal;fill:#000000;fill-opacity:1"
         id="tspan914"
         sodipodi:role="line">GEOSYSTEMS</tspan></text>
  </g>
  <g
     inkscape:groupmode="layer"
     id="g54026"
     inkscape:label="Schrift B"
     style="display:none;filter:url(#filter920)"
     transform="translate(-8.0676066,-5.9548699)"
     sodipodi:insensitive="true">
    <path
       style="fill:none;stroke:#dcedc2;stroke-width:0.705556;stroke-linecap:square;stroke-linejoin:miter;stroke-miterlimit:4;stroke-dasharray:none;stroke-opacity:1"
       d="m 56.655149,19.734634 v 45.29499"
       id="path54016"
       inkscape:connector-curvature="0" />
    <text
       xml:space="preserve"
       style="font-style:normal;font-variant:normal;font-weight:800;font-stretch:normal;font-size:22.5778px;line-height:1.25;font-family:'Avenir Next LT Pro';-inkscape-font-specification:'Avenir Next LT Pro, Ultra-Bold';font-variant-ligatures:normal;font-variant-caps:normal;font-variant-numeric:normal;fill:#dcedc2;fill-opacity:1;stroke:none;stroke-width:0.264583"
       x="61.534191"
       y="46.897064"
       id="text54020"><tspan
         sodipodi:role="line"
         id="tspan54297"
         x="61.534191"
         y="46.897064"
         dx="-0.80000001 7"
         dy="0 0">DRA</tspan></text>
    <text
       xml:space="preserve"
       style="font-style:normal;font-weight:normal;font-size:7.05556px;line-height:1.25;font-family:sans-serif;letter-spacing:0.264583px;fill:#dcedc2;fill-opacity:1;stroke:none;stroke-width:0.264583"
       x="62.329697"
       y="53.887928"
       id="text54024"><tspan
         sodipodi:role="line"
         id="tspan54022"
         style="font-style:normal;font-variant:normal;font-weight:normal;font-stretch:normal;font-size:6.35px;font-family:sans-serif;-inkscape-font-specification:'sans-serif, Normal';font-variant-ligatures:normal;font-variant-caps:normal;font-variant-numeric:normal;fill:#dcedc2;fill-opacity:1"
         x="62.329697"
         y="53.887928"
         dx="0 0 0 1 -0.2 -0.2">GEOSYSTEMS</tspan></text>
    <path
       id="path50930-3"
       style="display:inline;mix-blend-mode:normal;fill:#dcedc2;fill-opacity:1;stroke:#dcedc2;stroke-width:0.407458;stroke-linecap:round;stroke-linejoin:round;stroke-miterlimit:4;stroke-dasharray:none;stroke-opacity:1"
       d="m 87.742611,27.970282 c 0,0 -5.729266,6.180278 -7.540986,9.996727 -1.811717,3.81645 -3.050633,12.457772 -3.050633,12.457772 0,0 5.84445,-6.255128 7.644765,-10.063769 1.814303,-3.838241 2.946854,-12.39073 2.946854,-12.39073 z m -5.824977,8.847972 c 0.582429,-0.158261 1.199772,-0.08936 1.728258,0.192916 1.156583,0.618279 1.585067,2.071904 0.957045,3.2468 -0.627839,1.174984 -2.07448,1.626482 -3.231197,1.00846 -1.156584,-0.618279 -1.585067,-2.071903 -0.957047,-3.2468 0.31627,-0.591709 0.860851,-1.027017 1.502944,-1.201369 z"
       sodipodi:nodetypes="czcsccccccc"
       inkscape:connector-curvature="0" />
  </g>
  <g
     transform="translate(-8.0676066,-5.9548699)"
     style="display:none;filter:url(#filter920)"
     inkscape:label="Schrift B (black)"
     id="g936"
     inkscape:groupmode="layer"
     sodipodi:insensitive="true">
    <path
       inkscape:connector-curvature="0"
       id="path924"
       d="m 56.655149,19.734634 v 45.29499"
       style="fill:none;stroke:#000000;stroke-width:0.705556;stroke-linecap:square;stroke-linejoin:miter;stroke-miterlimit:4;stroke-dasharray:none;stroke-opacity:1" />
    <text
       id="text928"
       y="46.897064"
       x="61.534191"
       style="font-style:normal;font-variant:normal;font-weight:800;font-stretch:normal;font-size:22.5778px;line-height:1.25;font-family:'Avenir Next LT Pro';-inkscape-font-specification:'Avenir Next LT Pro, Ultra-Bold';font-variant-ligatures:normal;font-variant-caps:normal;font-variant-numeric:normal;fill:#000001;fill-opacity:1;stroke:none;stroke-width:0.264583"
       xml:space="preserve"><tspan
         dy="0 0"
         dx="-0.80000001 7"
         y="46.897064"
         x="61.534191"
         id="tspan926"
         sodipodi:role="line">DRA</tspan></text>
    <text
       id="text932"
       y="53.887928"
       x="62.329697"
       style="font-style:normal;font-weight:normal;font-size:7.05556px;line-height:1.25;font-family:sans-serif;letter-spacing:0.264583px;fill:#000000;fill-opacity:1;stroke:none;stroke-width:0.264583"
       xml:space="preserve"><tspan
         dx="0 0 0 1 -0.2 -0.2"
         y="53.887928"
         x="62.329697"
         style="font-style:normal;font-variant:normal;font-weight:normal;font-stretch:normal;font-size:6.35px;font-family:sans-serif;-inkscape-font-specification:'sans-serif, Normal';font-variant-ligatures:normal;font-variant-caps:normal;font-variant-numeric:normal;fill:#000000;fill-opacity:1"
         id="tspan930"
         sodipodi:role="line">GEOSYSTEMS</tspan></text>
    <path
       inkscape:connector-curvature="0"
       sodipodi:nodetypes="czcsccccccc"
       d="m 87.742611,27.970282 c 0,0 -5.729266,6.180278 -7.540986,9.996727 -1.811717,3.81645 -3.050633,12.457772 -3.050633,12.457772 0,0 5.84445,-6.255128 7.644765,-10.063769 1.814303,-3.838241 2.946854,-12.39073 2.946854,-12.39073 z m -5.824977,8.847972 c 0.582429,-0.158261 1.199772,-0.08936 1.728258,0.192916 1.156583,0.618279 1.585067,2.071904 0.957045,3.2468 -0.627839,1.174984 -2.07448,1.626482 -3.231197,1.00846 -1.156584,-0.618279 -1.585067,-2.071903 -0.957047,-3.2468 0.31627,-0.591709 0.860851,-1.027017 1.502944,-1.201369 z"
       style="display:inline;mix-blend-mode:normal;fill:#020000;fill-opacity:1;stroke:#000000;stroke-width:0.407458;stroke-linecap:round;stroke-linejoin:round;stroke-miterlimit:4;stroke-dasharray:none;stroke-opacity:1"
       id="path934" />
  </g>
  <metadata
     id="metadata35">
    <rdf:RDF>
      <cc:Work
         rdf:about="">
        <dc:title>Logo-Studie Dira</dc:title>
        <dc:date>Nov 12, 2021</dc:date>
        <dc:rights>
          <cc:Agent>
            <dc:title>(c) Dira GeoSystems</dc:title>
          </cc:Agent>
        </dc:rights>
        <dc:contributor>
          <cc:Agent>
            <dc:title>UJR</dc:title>
          </cc:Agent>
        </dc:contributor>
        <dc:format>image/svg+xml</dc:format>
        <dc:type
           rdf:resource="http://purl.org/dc/dcmitype/StillImage" />
      </cc:Work>
    </rdf:RDF>
  </metadata>
</svg>
