<?xml version="1.0" standalone="no"?>
<!DOCTYPE svg PUBLIC "-//W3C//DTD SVG 20010904//EN"
 "http://www.w3.org/TR/2001/REC-SVG-20010904/DTD/svg10.dtd">
<svg version="1.0" xmlns="http://www.w3.org/2000/svg"
 width="1200.000000pt" height="1200.000000pt" viewBox="0 0 1200.000000 1200.000000"
 preserveAspectRatio="xMidYMid meet">
<metadata>
Created by potrace 1.14, written by Peter Selinger 2001-2017
</metadata>
<g transform="translate(0.000000,1200.000000) scale(0.100000,-0.100000)"
fill="#000000" stroke="none">
<path d="M3843 11201 c-302 -202 -381 -260 -568 -416 -111 -92 -408 -380 -501
-485 -40 -46 -130 -152 -151 -180 -6 -8 -31 -40 -55 -70 -395 -499 -714 -1149
-873 -1780 -36 -143 -79 -345 -89 -420 -3 -25 -8 -58 -11 -75 -11 -65 -14 -92
-20 -150 -4 -33 -8 -71 -11 -85 -25 -149 -25 -764 0 -975 2 -16 7 -57 10 -90
4 -33 9 -71 11 -85 3 -14 7 -43 10 -65 2 -22 7 -51 10 -65 3 -14 8 -41 11 -60
3 -19 7 -46 9 -61 7 -37 61 -276 79 -339 121 -448 295 -857 539 -1265 109
-183 314 -473 421 -595 17 -20 51 -60 76 -89 107 -128 324 -346 480 -483 229
-201 454 -363 725 -526 152 -91 549 -292 578 -292 9 0 17 -4 17 -10 0 -5 6
-10 14 -10 7 0 46 -14 87 -31 356 -146 855 -274 1234 -314 33 -4 67 -8 75 -10
8 -2 56 -7 105 -11 88 -7 135 -11 145 -13 3 -1 5 -189 5 -418 l0 -418 -838 -1
c-461 -1 -841 -4 -844 -8 -5 -4 -8 -552 -4 -668 l1 -26 1973 0 c1085 0 1978 3
1983 6 6 4 10 138 10 350 l-1 342 -30 1 c-16 0 -421 1 -900 2 l-869 2 -1 418
0 417 30 1 c63 2 273 18 306 23 13 3 50 7 83 11 32 4 68 8 80 10 11 2 64 11
116 19 265 43 692 154 845 221 17 7 41 16 55 20 99 28 505 214 660 302 182
102 349 208 520 328 93 65 230 161 333 231 54 37 100 71 103 76 4 7 -146 232
-216 325 l-17 22 -184 -128 c-101 -71 -187 -127 -191 -124 -4 2 -35 47 -68
101 -34 53 -99 155 -145 226 l-83 130 82 65 c215 172 461 426 642 661 277 361
505 816 631 1260 13 47 26 92 28 100 12 42 73 353 79 401 4 31 9 67 11 80 3
13 7 56 10 94 3 39 7 93 11 120 7 62 7 437 0 525 -6 64 -11 121 -22 210 -34
288 -125 639 -246 945 -34 86 -189 410 -218 455 -5 8 -28 46 -51 85 -261 438
-602 817 -1014 1125 -209 157 -337 236 -590 365 -270 139 -675 283 -930 331
-11 2 -40 8 -65 14 -52 11 -72 15 -200 35 -198 30 -337 40 -590 40 -190 0
-365 -8 -440 -19 -14 -2 -47 -7 -75 -10 -74 -9 -111 -15 -200 -32 -44 -9 -93
-18 -110 -21 -152 -26 -549 -151 -715 -225 -216 -97 -400 -191 -495 -254 -22
-14 -24 -14 -48 18 -54 72 -349 493 -353 503 -3 6 70 59 161 119 91 60 165
111 165 114 0 14 -224 342 -234 342 -6 -1 -138 -86 -293 -189z m19 -741 c52
-74 133 -189 181 -255 l86 -120 -37 -30 c-298 -244 -454 -395 -638 -620 -181
-220 -300 -402 -456 -695 -93 -176 -210 -479 -270 -695 -10 -38 -21 -77 -23
-85 -10 -35 -64 -299 -70 -340 -3 -25 -8 -57 -10 -71 -9 -53 -21 -168 -31
-294 -5 -57 -4 -453 0 -495 2 -19 7 -69 10 -110 7 -75 12 -118 21 -175 3 -16
7 -48 11 -70 26 -176 91 -436 155 -622 307 -893 908 -1624 1734 -2111 151 -89
463 -239 565 -272 14 -5 72 -25 130 -45 58 -20 112 -39 120 -41 8 -2 61 -17
116 -33 89 -26 259 -66 319 -75 11 -2 61 -11 110 -19 50 -9 119 -19 155 -22
36 -4 73 -9 82 -10 116 -23 677 -23 797 0 9 1 47 6 84 10 37 3 76 8 85 9 31 6
86 15 122 21 251 42 592 144 857 256 159 67 490 240 541 282 10 7 17 4 30 -14
21 -29 230 -356 246 -384 6 -11 17 -27 24 -36 11 -15 5 -21 -50 -55 -35 -22
-73 -44 -83 -51 -162 -100 -440 -234 -675 -326 -322 -127 -786 -241 -1105
-272 -33 -3 -76 -8 -95 -10 -198 -24 -595 -23 -828 1 -23 2 -63 6 -90 9 -66 7
-143 17 -167 21 -11 3 -36 7 -55 10 -19 2 -46 7 -60 9 -14 3 -41 7 -60 10 -19
3 -42 8 -50 10 -8 2 -31 7 -50 10 -144 24 -610 165 -749 226 -25 12 -55 25
-66 29 -135 57 -188 81 -290 133 -503 255 -972 616 -1335 1027 -41 46 -83 93
-93 105 -42 46 -228 297 -294 395 -222 333 -403 704 -530 1088 -41 125 -114
394 -126 467 -3 17 -12 66 -21 110 -18 95 -22 120 -40 250 -40 289 -43 748 -6
1065 12 109 36 264 50 330 5 25 12 60 15 78 3 19 23 102 44 185 240 937 771
1766 1520 2369 101 82 126 97 136 86 7 -7 55 -74 107 -148z m2938 -363 c14 -3
48 -8 75 -11 435 -48 922 -220 1302 -458 372 -232 714 -561 947 -907 184 -274
319 -553 406 -841 34 -111 37 -122 68 -265 19 -84 24 -112 37 -197 34 -228 38
-591 9 -808 -7 -55 -16 -113 -20 -135 -2 -11 -9 -47 -15 -80 -40 -226 -136
-515 -249 -750 -220 -457 -579 -878 -1007 -1183 -324 -230 -795 -437 -1153
-506 -14 -2 -56 -11 -95 -20 -38 -8 -97 -18 -130 -21 -33 -4 -69 -9 -79 -11
-142 -27 -593 -23 -794 6 -438 64 -785 180 -1167 389 -71 39 -306 194 -328
216 -9 8 -18 15 -22 15 -19 0 -251 207 -371 330 -405 417 -703 974 -813 1520
-28 137 -30 148 -37 210 -3 30 -8 64 -10 75 -17 88 -23 434 -10 580 13 147 17
179 37 295 34 196 122 503 186 650 45 102 137 285 180 360 47 81 169 269 182
280 3 3 19 23 36 45 53 72 171 208 256 295 426 432 971 733 1566 864 87 19
178 37 203 40 53 7 108 14 205 26 72 8 560 6 605 -3z"/>
<path d="M8455 9123 c-112 -19 -447 -124 -490 -153 -5 -4 -32 -15 -60 -25 -27
-10 -72 -28 -100 -41 -27 -12 -97 -43 -155 -69 -107 -48 -484 -235 -575 -285
-27 -15 -79 -43 -115 -62 -375 -201 -820 -481 -1027 -646 -281 -224 -658 -768
-1086 -1567 -73 -136 -267 -529 -267 -540 0 -2 -13 -32 -29 -67 -55 -120 -69
-154 -121 -293 -110 -297 -134 -480 -66 -517 101 -55 463 51 981 287 17 7 89
41 160 76 72 34 132 63 135 64 6 1 120 59 270 137 310 161 696 384 930 537 85
55 250 171 260 181 3 3 37 31 75 62 222 179 549 637 914 1278 455 800 694
1413 623 1592 -23 57 -115 76 -257 51z m-1826 -1448 c268 -40 502 -254 572
-521 74 -289 -51 -613 -301 -779 -62 -42 -165 -90 -212 -101 -10 -2 -28 -7
-40 -10 -13 -3 -60 -8 -105 -12 -338 -30 -655 200 -739 533 -17 72 -23 216
-11 292 22 140 107 299 216 402 171 161 389 230 620 196z"/>
</g>
</svg>
