<?xml version="1.0" encoding="UTF-8"?>
<svg id="Layer_2" data-name="Layer 2" xmlns="http://www.w3.org/2000/svg" viewBox="0 0 317.15 375.02">
  <defs>
    <style>
      .cls-1 {
        fill: #1d1d1b;
        stroke-width: 0px;
      }
    </style>
  </defs>
  <g id="finales_Logo_vektor" data-name="finales Logo vektor">
    <g>
      <path class="cls-1" d="M168.14,133.68c-7.03,8.24-13.15,16.1-17.44,22.79h0c-21.17,33.02-48.35,118.38-46.09,119.81,2.26,1.44,68.47-59.09,89.52-92.2.24-.38.5-.86.74-1.26,20.94-33.91,47.21-117.36,44.77-118.92-1.97-1.26-43.87,37.34-71.5,69.77ZM179.92,177.11c-3.25,4.19-9.27,4.95-13.46,1.71-4.19-3.25-4.95-9.27-1.71-13.46,3.25-4.19,9.27-4.95,13.46-1.71,4.19,3.25,4.95,9.27,1.71,13.46Z"/>
      <path class="cls-1" d="M314.88,146.56c-5.83-33.83-23.4-63.58-48.26-85.1-.01-.01-.03-.02-.04-.03-3.05-2.64-6.21-5.15-9.48-7.53-.25-.19-.5-.37-.76-.56-3.15-2.27-6.39-4.4-9.72-6.42-.31-.19-.6-.38-.91-.56-3.53-2.09-7.14-4.05-10.85-5.85-.08-.04-.16-.08-.23-.12-9.07-4.37-18.67-7.79-28.67-10.21-1.96-.48-3.92-.94-5.89-1.34-1.37-.27-2.75-.52-4.14-.75-2.78-.47-5.55-.86-8.32-1.17-.53-.06-1.05-.17-1.58-.22-.15-.01-.3,0-.44-.02-3.96-.38-7.91-.56-11.84-.61-.66,0-1.3-.1-1.97-.1-.93,0-1.84.06-2.77.08-.54.01-1.09.03-1.63.05-2.23.07-4.44.18-6.64.35-.53.04-1.06.09-1.59.14-2.11.19-4.21.41-6.28.68-.85.11-1.68.24-2.53.37-1.62.25-3.24.5-4.85.8-.49.09-.99.15-1.48.24h0l-2.86-11.81c9.88-1.95,19.85-2.93,29.85-2.95V0c-32.5.06-64.51,9.43-92.31,27.32-28.48,18.32-50.51,44.55-63.96,75.2h0c-3.32,7.57-6.27,15.34-8.49,23.41C-5.93,170.04-.15,216.25,22.46,256.04c15.13,26.59,36.9,48.33,62.9,63.43,0,.04-.02.08-.03.13,20.88,12.11,44.17,19.7,68.45,22.17.15.02.3.03.45.04,1.73.17,3.46.39,5.2.51v18.88h-32.36v13.84h88.23v-13.84h-32.35v-18.88c.45-.03.9-.09,1.34-.16,5.83-.44,11.65-1.12,17.46-2.17,4.68-.85,9.31-1.95,13.92-3.19.58-.15,1.14-.35,1.72-.51,3.88-1.09,7.71-2.31,11.51-3.67,1.44-.51,2.87-1.06,4.29-1.62,3.22-1.25,6.39-2.6,9.52-4.04.81-.37,1.65-.65,2.45-1.04.03-.01.06-.03.09-.05,0-.03,0-.06,0-.08,1.13-.54,2.3-1.01,3.42-1.57l-6.08-12.51c-2.46,1.25-5.03,2.28-7.55,3.4-2.57,1.14-5.14,2.3-7.75,3.29-1.61.61-3.26,1.11-4.89,1.67-2.39.82-4.79,1.61-7.22,2.31l-2.79-11.48c2.92-.85,5.8-1.79,8.64-2.83,2.6-.95,5.07-2.14,7.58-3.25.44-.19.89-.38,1.33-.57,1.56-.7,3.19-1.28,4.73-2.02,0-.08.03-.15.03-.23,5.41-2.62,10.66-5.57,15.71-8.83.07,0,.14,0,.21,0,.04,0,.07.02.11.02,39.89-25.92,66.4-70.7,66.4-121.82,0-8.48-.88-16.74-2.27-24.83ZM200.72,299.63c-2.98.69-6.02,1.18-9.06,1.65-1.38.21-2.75.48-4.15.65-1.86.23-3.74.31-5.61.46-2.75.22-5.51.42-8.31.47-1.92.03-3.84-.04-5.77-.1-2.54-.07-5.08-.17-7.58-.38-1.87-.16-3.75-.42-5.62-.66-2.52-.33-5.03-.68-7.5-1.14-1.84-.35-3.68-.79-5.51-1.22-2.56-.6-5.11-1.21-7.6-1.96-1.42-.42-2.79-.92-4.18-1.38-2.98-1-5.96-2.03-8.84-3.24-.5-.21-.97-.44-1.47-.66-46.67-20.22-79.35-66.66-79.35-120.75,0-8.5.88-16.78,2.41-24.83,11.62-60.79,64.99-106.76,129.18-106.76,1.17,0,2.32.08,3.47.11,1.63.05,3.25.11,4.88.22,1.83.13,3.65.28,5.47.47.62.07,1.24.18,1.87.25,2.88.34,5.74.75,8.56,1.28,2.72.52,5.45,1.16,8.17,1.86.75.19,1.53.33,2.28.53,7.66,2.12,14.97,4.86,21.89,8.18.07.03.13.07.2.1,3.36,1.62,6.63,3.37,9.8,5.24.22.13.44.28.67.41,3.08,1.84,6.07,3.79,8.96,5.86.11.08.22.16.32.24,36.8,26.53,57.89,70.91,54.21,117.1-.65,8.17-2,16.39-4.25,24.58-13.14,47.79-51.03,82.1-96.02,93-.51.12-1.01.27-1.53.39ZM34.6,249.13c-20.77-36.54-26.07-78.99-14.93-119.51,2.22-8.08,5.18-15.85,8.6-23.38,12.43-27.37,32.36-50.77,57.94-67.22,12.83-8.26,26.73-14.59,41.37-18.85l2.87,11.82c-1.25.37-2.45.9-3.69,1.3-1.93.64-3.85,1.31-5.74,2.03-3.94,1.46-7.8,3.11-11.59,4.9-.16.07-.32.14-.47.21,0,0-.02.02-.03.03-29.61,14.14-54.38,38-68.94,69-3.49,7.42-6.52,15.16-8.77,23.34-19.45,70.74,16.96,143.53,82.45,171.82.73.32,1.44.66,2.17.97,3.05,1.26,6.18,2.36,9.35,3.42,1.13.38,2.21.87,3.35,1.23.54.17,1.11.26,1.65.42.91.27,1.76.63,2.68.88,3.13.86,6.26,1.58,9.39,2.22.27.06.54.09.8.15,4.1.81,8.2,1.43,12.29,1.88.53.06,1.03.18,1.56.24.23.02.48.01.71.04,3.71.35,7.4.5,11.09.56,1.03.02,2.03.16,3.07.16,2.89,0,5.75-.09,8.6-.26,1.9-.11,3.77-.32,5.65-.51,4.34-.43,8.6-1.12,12.82-1.92l2.79,11.51c-5.34,1.02-10.72,1.86-16.18,2.34-4.72.42-9.45.78-14.25.78-3.28,0-6.53-.13-9.77-.33-.78-.05-1.56-.11-2.34-.17-2.25-.17-4.48-.42-6.71-.69-1.42-.18-2.85-.34-4.27-.56-1.28-.19-2.55-.44-3.83-.66-4.88-.87-9.75-1.91-14.59-3.25-4.74-1.3-9.37-2.85-13.91-4.56-.73-.28-1.45-.56-2.17-.85-3.81-1.5-7.54-3.16-11.19-4.93-.76-.37-1.55-.7-2.31-1.08-27.32-13.81-50.02-35.3-65.5-62.51Z"/>
    </g>
  </g>
</svg>